<mxfile host="app.diagrams.net" modified="2022-01-12T14:58:07.103Z" agent="5.0 (Windows NT 10.0; Win64; x64) AppleWebKit/537.36 (KHTML, like Gecko) Chrome/96.0.4664.110 Safari/537.36" etag="gxoJZ_ygtbe0eUeq9SSh" version="16.2.4" type="github">
  <diagram id="8pFzibIQdAPEOyE2JaGX" name="Page-1">
    <mxGraphModel dx="1038" dy="547" grid="1" gridSize="10" guides="1" tooltips="1" connect="1" arrows="1" fold="1" page="1" pageScale="1" pageWidth="827" pageHeight="1169" math="0" shadow="0">
      <root>
        <mxCell id="0" />
        <mxCell id="1" parent="0" />
        <mxCell id="ffqwPNzRVkPWGDzF3sLp-35" style="edgeStyle=orthogonalEdgeStyle;rounded=0;orthogonalLoop=1;jettySize=auto;html=1;entryX=0;entryY=0.5;entryDx=0;entryDy=0;fontFamily=Times New Roman;fontSize=21;" edge="1" parent="1" source="ffqwPNzRVkPWGDzF3sLp-1" target="ffqwPNzRVkPWGDzF3sLp-3">
          <mxGeometry relative="1" as="geometry">
            <Array as="points">
              <mxPoint x="440" y="260" />
              <mxPoint x="440" y="210" />
            </Array>
          </mxGeometry>
        </mxCell>
        <mxCell id="ffqwPNzRVkPWGDzF3sLp-1" value="&lt;font face=&quot;Times New Roman&quot; style=&quot;font-size: 21px&quot;&gt;&lt;b&gt;Gateway Service&lt;/b&gt;&lt;/font&gt;" style="rounded=0;whiteSpace=wrap;html=1;" vertex="1" parent="1">
          <mxGeometry x="300" y="110" width="100" height="300" as="geometry" />
        </mxCell>
        <mxCell id="ffqwPNzRVkPWGDzF3sLp-33" value="" style="edgeStyle=orthogonalEdgeStyle;rounded=0;orthogonalLoop=1;jettySize=auto;html=1;fontFamily=Times New Roman;fontSize=21;" edge="1" parent="1" source="ffqwPNzRVkPWGDzF3sLp-2" target="ffqwPNzRVkPWGDzF3sLp-22">
          <mxGeometry relative="1" as="geometry" />
        </mxCell>
        <mxCell id="ffqwPNzRVkPWGDzF3sLp-2" value="Department Service" style="whiteSpace=wrap;html=1;aspect=fixed;fontFamily=Times New Roman;fontSize=21;" vertex="1" parent="1">
          <mxGeometry x="520" y="30" width="100" height="100" as="geometry" />
        </mxCell>
        <mxCell id="ffqwPNzRVkPWGDzF3sLp-32" value="" style="edgeStyle=orthogonalEdgeStyle;rounded=0;orthogonalLoop=1;jettySize=auto;html=1;fontFamily=Times New Roman;fontSize=21;" edge="1" parent="1" source="ffqwPNzRVkPWGDzF3sLp-3" target="ffqwPNzRVkPWGDzF3sLp-26">
          <mxGeometry relative="1" as="geometry" />
        </mxCell>
        <mxCell id="ffqwPNzRVkPWGDzF3sLp-3" value="College Service" style="whiteSpace=wrap;html=1;aspect=fixed;fontFamily=Times New Roman;fontSize=21;" vertex="1" parent="1">
          <mxGeometry x="520" y="160" width="100" height="100" as="geometry" />
        </mxCell>
        <mxCell id="ffqwPNzRVkPWGDzF3sLp-31" value="" style="edgeStyle=orthogonalEdgeStyle;rounded=0;orthogonalLoop=1;jettySize=auto;html=1;fontFamily=Times New Roman;fontSize=21;" edge="1" parent="1" source="ffqwPNzRVkPWGDzF3sLp-4" target="ffqwPNzRVkPWGDzF3sLp-27">
          <mxGeometry relative="1" as="geometry" />
        </mxCell>
        <mxCell id="ffqwPNzRVkPWGDzF3sLp-4" value="Student Service" style="whiteSpace=wrap;html=1;aspect=fixed;fontFamily=Times New Roman;fontSize=21;" vertex="1" parent="1">
          <mxGeometry x="520" y="300" width="100" height="100" as="geometry" />
        </mxCell>
        <mxCell id="ffqwPNzRVkPWGDzF3sLp-34" value="" style="edgeStyle=orthogonalEdgeStyle;rounded=0;orthogonalLoop=1;jettySize=auto;html=1;fontFamily=Times New Roman;fontSize=21;" edge="1" parent="1" source="ffqwPNzRVkPWGDzF3sLp-5" target="ffqwPNzRVkPWGDzF3sLp-28">
          <mxGeometry relative="1" as="geometry" />
        </mxCell>
        <mxCell id="ffqwPNzRVkPWGDzF3sLp-5" value="Employee Service" style="whiteSpace=wrap;html=1;aspect=fixed;fontFamily=Times New Roman;fontSize=21;" vertex="1" parent="1">
          <mxGeometry x="520" y="430" width="100" height="100" as="geometry" />
        </mxCell>
        <mxCell id="ffqwPNzRVkPWGDzF3sLp-7" value="Client 1" style="ellipse;whiteSpace=wrap;html=1;aspect=fixed;fontFamily=Times New Roman;fontSize=21;" vertex="1" parent="1">
          <mxGeometry x="90" y="90" width="80" height="80" as="geometry" />
        </mxCell>
        <mxCell id="ffqwPNzRVkPWGDzF3sLp-8" value="Client 2" style="ellipse;whiteSpace=wrap;html=1;aspect=fixed;fontFamily=Times New Roman;fontSize=21;" vertex="1" parent="1">
          <mxGeometry x="90" y="200" width="80" height="80" as="geometry" />
        </mxCell>
        <mxCell id="ffqwPNzRVkPWGDzF3sLp-9" value="Client n" style="ellipse;whiteSpace=wrap;html=1;aspect=fixed;fontFamily=Times New Roman;fontSize=21;" vertex="1" parent="1">
          <mxGeometry x="90" y="340" width="80" height="80" as="geometry" />
        </mxCell>
        <mxCell id="ffqwPNzRVkPWGDzF3sLp-11" value="" style="endArrow=none;dashed=1;html=1;rounded=0;fontFamily=Times New Roman;fontSize=21;" edge="1" parent="1">
          <mxGeometry width="50" height="50" relative="1" as="geometry">
            <mxPoint x="130" y="320" as="sourcePoint" />
            <mxPoint x="130" y="300" as="targetPoint" />
          </mxGeometry>
        </mxCell>
        <mxCell id="ffqwPNzRVkPWGDzF3sLp-19" value="" style="endArrow=classic;html=1;rounded=0;fontFamily=Times New Roman;fontSize=21;entryX=-0.004;entryY=0.438;entryDx=0;entryDy=0;entryPerimeter=0;" edge="1" parent="1" source="ffqwPNzRVkPWGDzF3sLp-7" target="ffqwPNzRVkPWGDzF3sLp-1">
          <mxGeometry width="50" height="50" relative="1" as="geometry">
            <mxPoint x="170" y="180" as="sourcePoint" />
            <mxPoint x="220" y="130" as="targetPoint" />
            <Array as="points">
              <mxPoint x="220" y="210" />
            </Array>
          </mxGeometry>
        </mxCell>
        <mxCell id="ffqwPNzRVkPWGDzF3sLp-20" value="" style="endArrow=classic;html=1;rounded=0;fontFamily=Times New Roman;fontSize=21;exitX=1;exitY=0.5;exitDx=0;exitDy=0;" edge="1" parent="1" source="ffqwPNzRVkPWGDzF3sLp-8">
          <mxGeometry width="50" height="50" relative="1" as="geometry">
            <mxPoint x="170" y="240" as="sourcePoint" />
            <mxPoint x="300" y="240" as="targetPoint" />
          </mxGeometry>
        </mxCell>
        <mxCell id="ffqwPNzRVkPWGDzF3sLp-21" value="" style="endArrow=classic;html=1;rounded=0;fontFamily=Times New Roman;fontSize=21;entryX=-0.044;entryY=0.454;entryDx=0;entryDy=0;entryPerimeter=0;exitX=1.01;exitY=0.248;exitDx=0;exitDy=0;exitPerimeter=0;" edge="1" parent="1" source="ffqwPNzRVkPWGDzF3sLp-9" target="ffqwPNzRVkPWGDzF3sLp-1">
          <mxGeometry width="50" height="50" relative="1" as="geometry">
            <mxPoint x="160" y="380" as="sourcePoint" />
            <mxPoint x="210" y="330" as="targetPoint" />
            <Array as="points">
              <mxPoint x="220" y="280" />
            </Array>
          </mxGeometry>
        </mxCell>
        <mxCell id="ffqwPNzRVkPWGDzF3sLp-22" value="H2 DB" style="shape=cylinder3;whiteSpace=wrap;html=1;boundedLbl=1;backgroundOutline=1;size=15;fontFamily=Times New Roman;fontSize=21;" vertex="1" parent="1">
          <mxGeometry x="680" y="40" width="60" height="80" as="geometry" />
        </mxCell>
        <mxCell id="ffqwPNzRVkPWGDzF3sLp-26" value="H2 DB" style="shape=cylinder3;whiteSpace=wrap;html=1;boundedLbl=1;backgroundOutline=1;size=15;fontFamily=Times New Roman;fontSize=21;" vertex="1" parent="1">
          <mxGeometry x="680" y="160" width="60" height="80" as="geometry" />
        </mxCell>
        <mxCell id="ffqwPNzRVkPWGDzF3sLp-27" value="H2 DB" style="shape=cylinder3;whiteSpace=wrap;html=1;boundedLbl=1;backgroundOutline=1;size=15;fontFamily=Times New Roman;fontSize=21;" vertex="1" parent="1">
          <mxGeometry x="680" y="310" width="60" height="80" as="geometry" />
        </mxCell>
        <mxCell id="ffqwPNzRVkPWGDzF3sLp-28" value="H2 DB" style="shape=cylinder3;whiteSpace=wrap;html=1;boundedLbl=1;backgroundOutline=1;size=15;fontFamily=Times New Roman;fontSize=21;" vertex="1" parent="1">
          <mxGeometry x="680" y="430" width="60" height="80" as="geometry" />
        </mxCell>
      </root>
    </mxGraphModel>
  </diagram>
</mxfile>
